<?xml version="1.0" encoding="UTF-8" standalone="no"?>
<svg
   xmlns:dc="http://purl.org/dc/elements/1.1/"
   xmlns:cc="http://creativecommons.org/ns#"
   xmlns:rdf="http://www.w3.org/1999/02/22-rdf-syntax-ns#"
   xmlns:svg="http://www.w3.org/2000/svg"
   xmlns="http://www.w3.org/2000/svg"
   xmlns:sodipodi="http://sodipodi.sourceforge.net/DTD/sodipodi-0.dtd"
   xmlns:inkscape="http://www.inkscape.org/namespaces/inkscape"
   viewBox="0 0 812.3006 78.029871"
   height="78.029869"
   width="812.3006"
   xml:space="preserve"
   version="1.1"
   id="svg2"
   inkscape:version="0.48.5 r10040"
   sodipodi:docname="Furuno.svg"><sodipodi:namedview
     pagecolor="#ffffff"
     bordercolor="#666666"
     borderopacity="1"
     objecttolerance="10"
     gridtolerance="10"
     guidetolerance="10"
     inkscape:pageopacity="0"
     inkscape:pageshadow="2"
     inkscape:window-width="1280"
     inkscape:window-height="972"
     id="namedview18"
     showgrid="false"
     fit-margin-top="5"
     fit-margin-left="5"
     fit-margin-right="5"
     fit-margin-bottom="5"
     inkscape:zoom="1"
     inkscape:cx="270.979"
     inkscape:cy="57.132342"
     inkscape:window-x="-8"
     inkscape:window-y="-8"
     inkscape:window-maximized="1"
     inkscape:current-layer="g12" /><metadata
     id="metadata8"><rdf:RDF><cc:Work
         rdf:about=""><dc:format>image/svg+xml</dc:format><dc:type
           rdf:resource="http://purl.org/dc/dcmitype/StillImage" /><dc:title></dc:title></cc:Work></rdf:RDF></metadata><defs
     id="defs6" /><g
     transform="matrix(1.3333333,0,0,-1.3333333,162.38801,145.44533)"
     id="g10"><g
       transform="scale(0.1,0.1)"
       id="g12"><path
         id="path16"
         style="fill:#0f3caa;fill-opacity:1;fill-rule:evenodd;stroke:none"
         d="m 2776.9894,794.25671 -1.5745,257.47389 -322.9138,-1.5746 0,-265.45479 c 0,0 -3.184,-116.02363 -112.9095,-114.42463 -111.3702,0 -114.5191,114.42463 -114.5191,114.42463 l 0,267.02939 -324.4954,0 0,-267.02939 c 4.7726,-133.50415 114.5261,-240.00026 249.7238,-240.00026 l -1.5746,0 376.9368,0 c 138.4167,0 251.3263,111.25462 251.3263,249.55576"
         inkscape:connector-curvature="0" /><path
         id="path22"
         style="fill:#0f3caa;fill-opacity:1;fill-rule:evenodd;stroke:none"
         d="m -1180.4101,1045.3974 0,-500.69645 439.00391,0 0,150.99865 349.92881,0 0,125.56515 -349.92881,0 0,100.13161 439.01439,0 0,124.00104 -878.0183,0"
         inkscape:connector-curvature="0" /><path
         id="path24"
         style="fill:#0f3caa;fill-opacity:1;fill-rule:evenodd;stroke:none"
         d="m -1180.4101,1045.3974 0,-500.69645 439.00391,0 0,150.99865 349.92881,0 0,123.98015 -349.92881,0 0,100.1421 439.01439,0 0,125.57555 -878.0183,0"
         inkscape:connector-curvature="0" /><path
         id="path26"
         style="fill:#0f3caa;fill-opacity:1;fill-rule:evenodd;stroke:none"
         d="m 1614.2688,678.21909 c 77.9486,23.83453 141.5692,98.54311 141.5692,184.3747 0,104.88312 -85.9015,190.74621 -190.8792,190.74621 l -690.32309,0 0,-508.63905 348.34389,-1.58501 1.585,144.64116 151.1246,-144.64116 380.1488,0 -141.5692,135.10315 z m -219.5001,65.16708 -170.2041,1.58499 0,174.85069 167.0202,0 c 114.5189,0 106.5659,-176.43568 3.1839,-176.43568"
         inkscape:connector-curvature="0" /><path
         id="path30"
         style="fill:#0f3caa;fill-opacity:1;fill-rule:evenodd;stroke:none"
         d="m 723.53909,795.84172 -1.59899,255.88888 -322.88222,-1.5746 0,-265.45479 c 0,0 -1.599,-114.42463 -112.93767,-114.42463 -111.34911,0 -114.51911,114.42463 -114.51911,114.42463 l 0,267.02939 -324.48126,0 0,-267.02939 c 6.354,-131.91915 114.519153,-238.40127 249.720232,-240.00026 l -1.584998,0 378.549836,0 c 138.38507,0 249.73418,112.85362 249.73418,251.14077"
         inkscape:connector-curvature="0" /><path
         id="path32"
         style="fill:#0f3caa;fill-opacity:1;fill-rule:evenodd;stroke:none"
         d="m 2926.4975,1053.34 0,-500.68605 375.3974,0 0,174.8367 125.6455,-174.8367 375.3974,0 0,500.68605 -375.3974,0 0,-176.44969 -125.6455,176.44969 -375.3974,0"
         inkscape:connector-curvature="0" /><path
         id="path34"
         style="fill:#0f3caa;fill-opacity:1;fill-rule:evenodd;stroke:none"
         d="m 4585.5025,1046.972 -375.3623,0 c -138.3816,0 -248.1423,-103.32262 -251.3263,-249.54528 -1.5744,-146.22966 111.3351,-252.72577 249.7167,-252.72577 139.9912,0 272.0048,0 373.7879,0 141.5656,0 256.0847,104.89712 254.5102,252.72577 -3.184,147.83216 -112.9446,249.54528 -251.3262,249.54528 z M 4397.8213,630.53254 c -58.8516,0 -63.645,50.85656 -63.645,50.85656 l 0,227.30624 c 0,0 7.9774,55.63257 63.645,55.63257 58.8515,-1.6095 63.6101,-54.05806 63.6101,-54.05806 l 0,-228.88075 c 0,0 -7.9426,-52.44157 -63.6101,-50.85656"
         inkscape:connector-curvature="0" /></g></g></svg>